# Blender 4.5.3 LTS
# www.blender.org
mtllib Bench.mtl
o Bench
v -9.476366 10.983405 -5.481724
v -9.476366 11.242224 -4.515798
v 9.523634 10.983405 -5.481723
v 9.523634 11.242224 -4.515797
v -9.476366 9.051554 -4.964086
v -9.476366 9.310372 -3.998159
v 9.523634 9.051554 -4.964085
v 9.523634 9.310372 -3.998159
v -10.476368 -0.500000 3.078413
v -10.476368 5.500001 3.078414
v -9.476366 -0.500000 3.078413
v -9.476366 5.500001 3.078414
v -10.476368 -0.500000 4.078414
v -10.476368 5.500000 4.078414
v -9.476366 -0.500000 4.078414
v -9.476366 5.500000 4.078414
v -10.476368 -0.500000 -3.921586
v -10.476368 5.500000 -3.921586
v -9.476366 -0.500000 -3.921586
v -9.476366 5.500000 -3.921586
v -10.476368 -0.500000 -2.921586
v -10.476368 5.500000 -2.921586
v -9.476366 -0.500000 -2.921586
v -9.476366 5.500000 -2.921586
v 9.523634 -0.500000 -3.921585
v 9.523634 5.500000 -3.921586
v 10.523634 -0.500000 -3.921585
v 10.523634 5.500000 -3.921585
v 9.523634 -0.500000 -2.921585
v 9.523634 5.500000 -2.921585
v 10.523634 -0.500000 -2.921585
v 10.523634 5.500000 -2.921585
v 9.523634 -0.500000 3.078414
v 9.523634 5.500001 3.078414
v 10.523634 -0.500000 3.078414
v 10.523634 5.500001 3.078415
v 9.523634 -0.500000 4.078414
v 9.523634 5.500000 4.078415
v 10.523634 -0.500000 4.078414
v 10.523634 5.500000 4.078415
v -10.476368 -0.500000 -2.921586
v -10.476368 0.500000 -2.921586
v -9.476366 -0.500000 -2.921586
v -9.476366 0.500000 -2.921586
v -10.476368 -0.500001 3.078413
v -10.476368 0.500000 3.078414
v -9.476366 -0.500001 3.078413
v -9.476366 0.500000 3.078414
v -10.476368 4.500000 -2.921586
v -10.476368 5.500000 -2.921586
v -9.476366 4.500000 -2.921586
v -9.476366 5.500000 -2.921586
v -10.476368 4.500000 3.078414
v -10.476368 5.500000 3.078414
v -9.476366 4.500000 3.078415
v -9.476366 5.500000 3.078414
v 9.523634 4.500000 -2.921585
v 9.523634 5.500000 -2.921585
v 10.523634 4.500000 -2.921585
v 10.523634 5.500000 -2.921585
v 9.523634 4.500000 3.078415
v 9.523634 5.500000 3.078415
v 10.523634 4.500000 3.078415
v 10.523634 5.500000 3.078415
v 9.523634 -0.500000 -2.921585
v 9.523634 0.500000 -2.921585
v 10.523634 -0.500000 -2.921585
v 10.523634 0.500000 -2.921585
v 9.523634 -0.500001 3.078414
v 9.523634 0.500000 3.078415
v 10.523634 -0.500001 3.078414
v 10.523634 0.500000 3.078415
v -9.476366 4.500000 -0.921586
v -9.476366 5.500000 -0.921586
v 9.523634 4.500000 -0.921585
v 9.523634 5.500000 -0.921585
v -9.476366 4.500000 1.078414
v -9.476366 5.500000 1.078414
v 9.523634 4.500000 1.078415
v 9.523634 5.500000 1.078415
v -9.476366 4.499999 -3.921586
v -9.476366 5.500000 -3.921586
v 9.523634 4.499999 -3.921585
v 9.523634 5.500000 -3.921585
v -9.476366 4.500000 -1.921586
v -9.476366 5.500000 -1.921586
v 9.523634 4.500000 -1.921585
v 9.523634 5.500000 -1.921585
v -9.476366 4.500000 2.078414
v -9.476366 5.499999 2.078414
v 9.523634 4.500000 2.078414
v 9.523634 5.499999 2.078415
v -9.476366 4.500000 4.078414
v -9.476366 5.500000 4.078414
v 9.523634 4.500000 4.078415
v 9.523634 5.500000 4.078415
v -9.476366 4.099999 3.078413
v -9.476366 4.099999 4.078413
v 9.523634 4.099999 3.078414
v 9.523634 4.099999 4.078414
v -9.476366 2.900000 3.078413
v -9.476366 2.899999 4.078414
v 9.523634 2.900000 3.078414
v 9.523634 2.899999 4.078414
v 9.523634 5.172812 -3.928091
v 9.523634 10.968368 -5.481005
v 10.523634 5.172812 -3.928091
v 10.523634 10.968368 -5.481005
v 9.523634 5.431632 -2.962165
v 9.523634 11.227186 -4.515079
v 10.523634 5.431632 -2.962165
v 10.523634 11.227186 -4.515079
v -10.476368 5.172812 -3.928092
v -10.476368 10.968368 -5.481006
v -9.476366 5.172812 -3.928092
v -9.476366 10.968368 -5.481006
v -10.476368 5.431632 -2.962166
v -10.476368 11.227186 -4.515080
v -9.476366 5.431632 -2.962166
v -9.476366 11.227186 -4.515080
v -9.476366 8.265878 -4.753788
v -9.476366 8.524697 -3.787862
v 9.523634 8.265878 -4.753788
v 9.523634 8.524697 -3.787861
v -9.476366 6.334026 -4.236150
v -9.476366 6.592845 -3.270224
v 9.523634 6.334026 -4.236149
v 9.523634 6.592845 -3.270223
vn -0.0000 0.9659 -0.2588
vn 1.0000 -0.0000 -0.0000
vn -0.0000 -0.9659 0.2588
vn -1.0000 -0.0000 -0.0000
vn -0.0000 -0.2588 -0.9659
vn -0.0000 0.2588 0.9659
vn -0.0000 -0.0000 -1.0000
vn -0.0000 -0.0000 1.0000
vn -0.0000 -1.0000 -0.0000
vn -0.0000 1.0000 -0.0000
vt 0.187346 0.838730
vt 0.122463 0.838730
vt 0.122463 0.773521
vt 0.187346 0.773521
vt 0.187671 0.751301
vt 0.122463 0.751301
vt 0.122463 0.686092
vt 0.187671 0.686092
vt 0.274776 0.838730
vt 0.209892 0.838730
vt 0.209892 0.773521
vt 0.274776 0.773521
vt 0.275101 0.751301
vt 0.209892 0.751301
vt 0.209892 0.686092
vt 0.275101 0.686092
vt 0.429200 0.840061
vt 0.489976 0.840061
vt 0.489976 0.905270
vt 0.429200 0.905270
vt 0.071886 0.913167
vt 0.011110 0.913167
vt 0.011110 0.847958
vt 0.071886 0.847958
vt 0.934152 0.862265
vt 0.934152 0.649452
vt 0.937584 0.649452
vt 0.937584 0.862265
vt 0.456520 0.247808
vt 0.456520 0.033424
vt 0.516024 0.011110
vt 0.516024 0.225494
vt 0.297321 0.898906
vt 0.297321 0.686092
vt 0.300754 0.686092
vt 0.300754 0.898906
vt 0.456520 0.484412
vt 0.456520 0.270028
vt 0.516023 0.292342
vt 0.516024 0.506726
vt 0.955127 0.309659
vt 0.955127 0.246145
vt 0.958559 0.246145
vt 0.958559 0.309659
vt 0.681090 0.913946
vt 0.681090 0.977460
vt 0.677658 0.977460
vt 0.677658 0.913946
vt 0.897438 0.223924
vt 0.897438 0.011110
vt 0.900870 0.011110
vt 0.900870 0.223924
vt 0.011110 0.663872
vt 0.011110 0.449488
vt 0.070614 0.427174
vt 0.070614 0.641558
vt 0.923090 0.223924
vt 0.923090 0.011110
vt 0.926522 0.011110
vt 0.926522 0.223924
vt 0.092834 0.641558
vt 0.092834 0.427174
vt 0.152338 0.449488
vt 0.152338 0.663872
vt 0.985458 0.682480
vt 0.985458 0.618965
vt 0.988890 0.618965
vt 0.988890 0.682480
vt 0.580412 0.865671
vt 0.580412 0.929185
vt 0.576980 0.929185
vt 0.576980 0.865671
vt 0.934152 0.627231
vt 0.934152 0.414417
vt 0.937584 0.414417
vt 0.937584 0.627231
vt 0.174558 0.663872
vt 0.174558 0.449488
vt 0.234062 0.427174
vt 0.234062 0.641558
vt 0.908500 0.828881
vt 0.908500 0.616068
vt 0.911932 0.616068
vt 0.911932 0.828881
vt 0.256282 0.641558
vt 0.256282 0.427174
vt 0.315785 0.449488
vt 0.315785 0.663872
vt 0.985458 0.768215
vt 0.985458 0.704700
vt 0.988890 0.704700
vt 0.988890 0.768215
vt 0.399128 0.881700
vt 0.399128 0.945214
vt 0.395696 0.945214
vt 0.395696 0.881700
vt 0.948743 0.223924
vt 0.948743 0.011110
vt 0.952175 0.011110
vt 0.952175 0.223924
vt 0.538244 0.247808
vt 0.538244 0.033424
vt 0.597748 0.011110
vt 0.597748 0.225494
vt 0.882847 0.828881
vt 0.882847 0.616068
vt 0.886279 0.616068
vt 0.886279 0.828881
vt 0.538244 0.484412
vt 0.538244 0.270028
vt 0.597747 0.292342
vt 0.597747 0.506726
vt 0.980780 0.309659
vt 0.980780 0.246145
vt 0.984212 0.246145
vt 0.984212 0.309659
vt 0.300754 0.921126
vt 0.300754 0.984641
vt 0.297321 0.984641
vt 0.297321 0.921126
vt 0.454853 0.962960
vt 0.454853 0.927491
vt 0.458285 0.927491
vt 0.458285 0.962960
vt 0.267271 0.404954
vt 0.233815 0.392408
vt 0.233815 0.011110
vt 0.267271 0.023656
vt 0.763074 0.730681
vt 0.763074 0.695212
vt 0.766506 0.695212
vt 0.766506 0.730681
vt 0.289492 0.023656
vt 0.322947 0.011110
vt 0.322947 0.392408
vt 0.289492 0.404954
vt 0.794827 0.392197
vt 0.794827 0.011110
vt 0.798259 0.011110
vt 0.798259 0.392197
vt 0.798259 0.414417
vt 0.798259 0.795504
vt 0.794827 0.795504
vt 0.794827 0.414417
vt 0.897438 0.369043
vt 0.897438 0.333574
vt 0.900870 0.333574
vt 0.900870 0.369043
vt 0.044566 0.404954
vt 0.011110 0.392408
vt 0.011110 0.011110
vt 0.044566 0.023656
vt 0.923090 0.369043
vt 0.923090 0.333574
vt 0.926522 0.333574
vt 0.926522 0.369043
vt 0.066787 0.023656
vt 0.100242 0.011110
vt 0.100242 0.392408
vt 0.066787 0.404954
vt 0.425435 0.808261
vt 0.425435 0.427174
vt 0.428868 0.427174
vt 0.428868 0.808261
vt 0.823912 0.011110
vt 0.823912 0.392197
vt 0.820479 0.392197
vt 0.820479 0.011110
vt 0.948743 0.369043
vt 0.948743 0.333574
vt 0.952175 0.333574
vt 0.952175 0.369043
vt 0.155918 0.404954
vt 0.122463 0.392408
vt 0.122463 0.011110
vt 0.155918 0.023656
vt 0.429200 0.962960
vt 0.429200 0.927491
vt 0.432632 0.927491
vt 0.432632 0.962960
vt 0.178139 0.023656
vt 0.211595 0.011110
vt 0.211595 0.392408
vt 0.178139 0.404954
vt 0.820479 0.795504
vt 0.820479 0.414417
vt 0.823912 0.414417
vt 0.823912 0.795504
vt 0.849564 0.011110
vt 0.849564 0.392197
vt 0.846132 0.392197
vt 0.846132 0.011110
vt 0.480505 0.962960
vt 0.480505 0.927491
vt 0.483937 0.927491
vt 0.483937 0.962960
vt 0.378623 0.404954
vt 0.345168 0.392408
vt 0.345168 0.011110
vt 0.378623 0.023656
vt 0.675644 0.787224
vt 0.675644 0.751755
vt 0.679076 0.751755
vt 0.679076 0.787224
vt 0.400844 0.023656
vt 0.434300 0.011110
vt 0.434300 0.392408
vt 0.400844 0.404954
vt 0.846132 0.795504
vt 0.846132 0.414417
vt 0.849564 0.414417
vt 0.849564 0.795504
vt 0.875217 0.011110
vt 0.875217 0.392197
vt 0.871785 0.392197
vt 0.871785 0.011110
vt 0.932907 0.311353
vt 0.897438 0.311353
vt 0.897438 0.246145
vt 0.932907 0.246145
vt 0.577405 0.668591
vt 0.543950 0.656046
vt 0.543950 0.528946
vt 0.577405 0.541492
vt 0.830296 0.970363
vt 0.794827 0.970363
vt 0.794827 0.905154
vt 0.830296 0.905154
vt 0.707397 0.620654
vt 0.740853 0.608108
vt 0.740853 0.735207
vt 0.707397 0.747753
vt 0.456520 0.655975
vt 0.456520 0.528946
vt 0.521729 0.528946
vt 0.521729 0.655975
vt 0.403215 0.645021
vt 0.403215 0.772050
vt 0.338006 0.772050
vt 0.338006 0.645021
vt 0.887985 0.970363
vt 0.852516 0.970363
vt 0.852516 0.905154
vt 0.887985 0.905154
vt 0.044566 0.825737
vt 0.011110 0.813191
vt 0.011110 0.686092
vt 0.044566 0.698638
vt 0.969621 0.949695
vt 0.934152 0.949695
vt 0.934152 0.884486
vt 0.969621 0.884486
vt 0.066787 0.698638
vt 0.100242 0.686092
vt 0.100242 0.813191
vt 0.066787 0.825737
vt 0.707397 0.287389
vt 0.707397 0.160360
vt 0.772606 0.160360
vt 0.772606 0.287389
vt 0.772606 0.309609
vt 0.772606 0.436638
vt 0.707397 0.436638
vt 0.707397 0.309609
vt 0.655437 0.979154
vt 0.619968 0.979154
vt 0.619968 0.913946
vt 0.655437 0.913946
vt 0.653424 0.804296
vt 0.619968 0.791750
vt 0.619968 0.664651
vt 0.653424 0.677197
vt 0.373475 0.946909
vt 0.338006 0.946909
vt 0.338006 0.881700
vt 0.373475 0.881700
vt 0.456520 0.690742
vt 0.489976 0.678196
vt 0.489976 0.805295
vt 0.456520 0.817841
vt 0.707397 0.585887
vt 0.707397 0.458859
vt 0.772606 0.458859
vt 0.772606 0.585887
vt 0.772606 0.011110
vt 0.772606 0.138139
vt 0.707397 0.138139
vt 0.707397 0.011110
vt 0.858341 0.882933
vt 0.794827 0.882933
vt 0.794827 0.817725
vt 0.858341 0.817725
vt 0.871785 0.477967
vt 0.871785 0.414417
vt 0.911932 0.429472
vt 0.911932 0.493022
vt 0.683483 0.891725
vt 0.619968 0.891725
vt 0.619968 0.826516
vt 0.683483 0.826516
vt 0.871785 0.593847
vt 0.871785 0.530298
vt 0.911931 0.515243
vt 0.911931 0.578792
vt 0.512196 0.865671
vt 0.554759 0.865671
vt 0.554759 0.930879
vt 0.512196 0.930879
vt 0.248022 0.926160
vt 0.205459 0.926160
vt 0.205459 0.860951
vt 0.248022 0.860951
vt 0.974396 0.193438
vt 0.974396 0.011110
vt 0.977828 0.011110
vt 0.977828 0.193438
vt 0.619968 0.424583
vt 0.619968 0.228957
vt 0.685177 0.228957
vt 0.685177 0.424583
vt 0.959805 0.596745
vt 0.959805 0.414417
vt 0.963237 0.414417
vt 0.963237 0.596745
vt 0.403215 0.427174
vt 0.403215 0.622800
vt 0.338006 0.622800
vt 0.338006 0.427174
vt 0.675644 0.729534
vt 0.675644 0.664651
vt 0.679076 0.664651
vt 0.679076 0.729534
vt 0.766506 0.608108
vt 0.766506 0.672992
vt 0.763074 0.672992
vt 0.763074 0.608108
vt 0.985458 0.596745
vt 0.985458 0.414417
vt 0.988890 0.414417
vt 0.988890 0.596745
vt 0.619968 0.642430
vt 0.619968 0.446804
vt 0.685177 0.446804
vt 0.685177 0.642430
vt 0.959805 0.801293
vt 0.959805 0.618965
vt 0.963237 0.618965
vt 0.963237 0.801293
vt 0.685177 0.011110
vt 0.685177 0.206736
vt 0.619968 0.206736
vt 0.619968 0.011110
vt 0.094107 0.912841
vt 0.094107 0.847958
vt 0.097539 0.847958
vt 0.097539 0.912841
vt 0.273674 0.860951
vt 0.273674 0.925834
vt 0.270242 0.925834
vt 0.270242 0.860951
vt 0.577080 0.843450
vt 0.512196 0.843450
vt 0.512196 0.778241
vt 0.577080 0.778241
vt 0.772606 0.835182
vt 0.707397 0.835182
vt 0.707397 0.769974
vt 0.772606 0.769974
vt 0.402890 0.859479
vt 0.338006 0.859479
vt 0.338006 0.794271
vt 0.402890 0.794271
vt 0.577405 0.756021
vt 0.512196 0.756021
vt 0.512196 0.690812
vt 0.577405 0.690812
vt 0.122463 0.860951
vt 0.183238 0.860951
vt 0.183238 0.926160
vt 0.122463 0.926160
vt 0.768173 0.922612
vt 0.707397 0.922612
vt 0.707397 0.857403
vt 0.768173 0.857403
s 0
usemtl Material.001
f 1/1/1 2/2/1 4/3/1 3/4/1
f 3/5/2 4/6/2 8/7/2 7/8/2
f 7/9/3 8/10/3 6/11/3 5/12/3
f 5/13/4 6/14/4 2/15/4 1/16/4
f 3/17/5 7/18/5 5/19/5 1/20/5
f 8/21/6 4/22/6 2/23/6 6/24/6
f 9/25/7 10/26/7 12/27/7 11/28/7
f 11/29/2 12/30/2 16/31/2 15/32/2
f 15/33/8 16/34/8 14/35/8 13/36/8
f 13/37/4 14/38/4 10/39/4 9/40/4
f 11/41/9 15/42/9 13/43/9 9/44/9
f 16/45/10 12/46/10 10/47/10 14/48/10
f 17/49/7 18/50/7 20/51/7 19/52/7
f 19/53/2 20/54/2 24/55/2 23/56/2
f 23/57/8 24/58/8 22/59/8 21/60/8
f 21/61/4 22/62/4 18/63/4 17/64/4
f 19/65/9 23/66/9 21/67/9 17/68/9
f 24/69/10 20/70/10 18/71/10 22/72/10
f 25/73/7 26/74/7 28/75/7 27/76/7
f 27/77/2 28/78/2 32/79/2 31/80/2
f 31/81/8 32/82/8 30/83/8 29/84/8
f 29/85/4 30/86/4 26/87/4 25/88/4
f 27/89/9 31/90/9 29/91/9 25/92/9
f 32/93/10 28/94/10 26/95/10 30/96/10
f 33/97/7 34/98/7 36/99/7 35/100/7
f 35/101/2 36/102/2 40/103/2 39/104/2
f 39/105/8 40/106/8 38/107/8 37/108/8
f 37/109/4 38/110/4 34/111/4 33/112/4
f 35/113/9 39/114/9 37/115/9 33/116/9
f 40/117/10 36/118/10 34/119/10 38/120/10
f 41/121/7 42/122/7 44/123/7 43/124/7
f 43/125/2 44/126/2 48/127/2 47/128/2
f 47/129/8 48/130/8 46/131/8 45/132/8
f 45/133/4 46/134/4 42/135/4 41/136/4
f 43/137/9 47/138/9 45/139/9 41/140/9
f 48/141/10 44/142/10 42/143/10 46/144/10
f 49/145/7 50/146/7 52/147/7 51/148/7
f 51/149/2 52/150/2 56/151/2 55/152/2
f 55/153/8 56/154/8 54/155/8 53/156/8
f 53/157/4 54/158/4 50/159/4 49/160/4
f 51/161/9 55/162/9 53/163/9 49/164/9
f 56/165/10 52/166/10 50/167/10 54/168/10
f 57/169/7 58/170/7 60/171/7 59/172/7
f 59/173/2 60/174/2 64/175/2 63/176/2
f 63/177/8 64/178/8 62/179/8 61/180/8
f 61/181/4 62/182/4 58/183/4 57/184/4
f 59/185/9 63/186/9 61/187/9 57/188/9
f 64/189/10 60/190/10 58/191/10 62/192/10
f 65/193/7 66/194/7 68/195/7 67/196/7
f 67/197/2 68/198/2 72/199/2 71/200/2
f 71/201/8 72/202/8 70/203/8 69/204/8
f 69/205/4 70/206/4 66/207/4 65/208/4
f 67/209/9 71/210/9 69/211/9 65/212/9
f 72/213/10 68/214/10 66/215/10 70/216/10
f 73/217/7 74/218/7 76/219/7 75/220/7
f 75/221/2 76/222/2 80/223/2 79/224/2
f 79/225/8 80/226/8 78/227/8 77/228/8
f 77/229/4 78/230/4 74/231/4 73/232/4
f 75/233/9 79/234/9 77/235/9 73/236/9
f 80/237/10 76/238/10 74/239/10 78/240/10
f 81/241/7 82/242/7 84/243/7 83/244/7
f 83/245/2 84/246/2 88/247/2 87/248/2
f 87/249/8 88/250/8 86/251/8 85/252/8
f 85/253/4 86/254/4 82/255/4 81/256/4
f 83/257/9 87/258/9 85/259/9 81/260/9
f 88/261/10 84/262/10 82/263/10 86/264/10
f 89/265/7 90/266/7 92/267/7 91/268/7
f 91/269/2 92/270/2 96/271/2 95/272/2
f 95/273/8 96/274/8 94/275/8 93/276/8
f 93/277/4 94/278/4 90/279/4 89/280/4
f 91/281/9 95/282/9 93/283/9 89/284/9
f 96/285/10 92/286/10 90/287/10 94/288/10
f 97/289/10 98/290/10 100/291/10 99/292/10
f 99/293/2 100/294/2 104/295/2 103/296/2
f 103/297/9 104/298/9 102/299/9 101/300/9
f 101/301/4 102/302/4 98/303/4 97/304/4
f 99/305/7 103/306/7 101/307/7 97/308/7
f 104/309/8 100/310/8 98/311/8 102/312/8
f 105/313/5 106/314/5 108/315/5 107/316/5
f 107/317/2 108/318/2 112/319/2 111/320/2
f 111/321/6 112/322/6 110/323/6 109/324/6
f 109/325/4 110/326/4 106/327/4 105/328/4
f 107/329/3 111/330/3 109/331/3 105/332/3
f 112/333/1 108/334/1 106/335/1 110/336/1
f 113/337/5 114/338/5 116/339/5 115/340/5
f 115/341/2 116/342/2 120/343/2 119/344/2
f 119/345/6 120/346/6 118/347/6 117/348/6
f 117/349/4 118/350/4 114/351/4 113/352/4
f 115/353/3 119/354/3 117/355/3 113/356/3
f 120/357/1 116/358/1 114/359/1 118/360/1
f 121/361/1 122/362/1 124/363/1 123/364/1
f 123/365/2 124/366/2 128/367/2 127/368/2
f 127/369/3 128/370/3 126/371/3 125/372/3
f 125/373/4 126/374/4 122/375/4 121/376/4
f 123/377/5 127/378/5 125/379/5 121/380/5
f 128/381/6 124/382/6 122/383/6 126/384/6
