# Blender 4.5.3 LTS
# www.blender.org
mtllib leahf.mtl
o Plane.003
v -0.675240 12.764854 8.924152
v 0.740717 10.706693 9.869210
v 0.808966 12.764854 6.700405
v 2.224922 10.706693 7.645463
v -0.825663 11.092299 8.822401
v 1.110907 12.406441 10.114935
v 0.658542 11.092299 6.598654
v 2.595112 12.406441 7.891188
v -0.393186 10.412878 7.482554
v -0.442657 13.085012 7.554407
v 1.823572 10.413729 8.977177
v 1.774101 13.085863 9.049029
v 3.307435 9.174210 6.493052
v 4.403707 7.634568 7.141093
v 4.325178 9.174210 4.771367
v 5.421450 7.634568 5.419408
v 3.190918 7.923027 6.423197
v 4.690263 8.906092 7.309506
v 4.208661 7.923027 4.701511
v 5.708006 8.906093 5.587822
v 3.459198 7.414775 5.404723
v 3.425182 9.413710 5.460415
v 5.176088 7.415411 6.430533
v 5.142072 9.414346 6.486225
v 1.412655 13.513453 8.427896
v 3.115026 11.455291 8.427896
v 1.412655 13.513453 5.754338
v 3.115026 11.455291 5.754338
v 1.231053 11.840897 8.426771
v 3.559346 13.155039 8.426771
v 1.231053 11.840897 5.753212
v 3.559346 13.155039 5.753212
v 0.846962 11.161476 7.072260
v 0.845703 13.833611 7.159487
v 3.520492 11.162327 7.084804
v 3.519232 13.834462 7.172031
v -0.253256 17.347193 4.097564
v 5.030325 10.959361 4.097564
v -0.253256 17.347193 -4.200252
v 5.030325 10.959361 -4.200252
v -0.816887 12.156151 4.094070
v 6.409341 16.234800 4.094070
v -0.816887 12.156151 -4.203745
v 6.409340 16.234800 -4.203744
v -2.008972 10.047461 -0.109872
v -2.012881 18.340855 0.160853
v 6.288750 10.050100 -0.070938
v 6.284842 18.343496 0.199785
v 7.198814 15.454724 -2.013535
v 5.625548 12.392289 -0.028310
v 10.316591 15.454724 0.457265
v 8.743325 12.392289 2.442490
v 7.367957 12.966050 -2.224270
v 5.216238 14.921424 0.490874
v 10.485734 12.966050 0.246531
v 8.334015 14.921424 2.961675
v 9.302485 11.955109 -1.420389
v 9.201928 15.931103 -1.502471
v 6.817084 11.956374 1.685760
v 6.716527 15.932369 1.603678
v 9.732463 12.764855 1.217601
v 8.931200 10.706694 -0.284412
v 7.373565 12.764855 2.475978
v 6.572301 10.706694 0.973965
v 9.816946 11.092299 1.378361
v 8.721077 12.406442 -0.675908
v 7.458046 11.092299 2.636737
v 6.362178 12.406442 0.582468
v 8.802633 10.412879 2.354780
v 8.880187 13.085014 2.314836
v 7.555338 10.413730 -0.009997
v 7.632892 13.085865 -0.049942
v -4.953637 14.134124 1.908381
v -0.560292 7.746293 4.843470
v -0.344110 14.134124 -4.991327
v 4.049236 7.746293 -2.056240
v -5.420361 8.943082 1.592374
v 0.588313 13.021731 5.606623
v -0.810833 8.943081 -5.307335
v 5.197842 13.021731 -1.293086
v -4.076255 6.834391 -2.565460
v -4.229896 15.127787 -2.342522
v 2.801750 6.837032 2.076391
v 2.648110 15.130428 2.299329
v -3.608417 15.767564 -7.812399
v -5.977193 9.379732 -3.089567
v 3.808747 15.767563 -4.092258
v 1.439970 9.379731 0.630573
v -3.352603 10.576521 -8.314644
v -6.592320 14.655170 -1.855341
v 4.064559 10.576521 -4.594503
v 0.824843 14.655170 1.864799
v 0.939617 8.467831 -7.495469
v 0.699378 16.761227 -7.620337
v -2.815283 8.470470 -0.095844
v -3.055522 16.763866 -0.220711
v 3.769551 14.026251 -7.727833
v 2.481184 11.074658 -9.801558
v 0.512785 14.026251 -5.704465
v -0.775582 11.074658 -7.778191
v 3.905617 11.627653 -7.505766
v 2.143548 13.512253 -10.341949
v 0.648852 11.627653 -5.482397
v -1.113218 13.512253 -8.318581
v 2.546317 10.653301 -6.012786
v 2.653525 14.485388 -6.077267
v 0.538251 10.654521 -9.279009
v 0.645459 14.486608 -9.343489
v 0.566981 13.795681 5.784356
v 4.234951 9.361118 5.784356
v 0.566982 13.795681 0.023844
v 4.234951 9.361118 0.023844
v 0.175698 10.191954 5.781930
v 5.192292 13.023436 5.781930
v 0.175698 10.191954 0.021418
v 5.192292 13.023436 0.021418
v -0.651872 8.728058 2.863468
v -0.654586 14.485502 3.051411
v 5.108576 8.729891 2.890497
v 5.105862 14.487335 3.078440
vn 0.6409 0.6374 0.4278
vn -0.4088 0.8709 -0.2729
vn 0.5587 0.0326 -0.8287
vn 0.6633 0.6374 0.3921
vn -0.4231 0.8709 -0.2501
vn 0.5126 0.0326 -0.8580
vn 0.7706 0.6374 -0.0000
vn -0.4915 0.8709 -0.0000
vn 0.0047 0.0326 -0.9995
vn -0.4786 0.6374 0.6039
vn 0.3053 0.8709 -0.3852
vn 0.7804 0.0326 0.6244
vn -0.3627 0.6374 -0.6799
vn 0.2314 0.8709 0.4337
vn -0.8840 0.0326 0.4663
vn 0.6407 0.6374 0.4281
vn -0.4087 0.8709 -0.2731
vn 0.5591 0.0326 -0.8285
vn -0.3455 0.6374 0.6888
vn 0.2204 0.8709 -0.4394
vn 0.8913 0.0326 0.4523
vn -0.4066 0.6374 -0.6545
vn 0.2594 0.8709 0.4175
vn -0.8514 0.0326 0.5235
vt 0.926485 0.426150
vt 0.982429 0.425444
vt 0.982429 0.496223
vt 0.926485 0.496929
vt 0.831728 0.489698
vt 0.831728 0.425444
vt 0.891343 0.441462
vt 0.891343 0.505716
vt 0.982169 0.860024
vt 0.945527 0.859279
vt 0.945527 0.788496
vt 0.982169 0.789242
vt 0.908029 0.174376
vt 0.949879 0.175615
vt 0.949879 0.228530
vt 0.908029 0.227291
vt 0.828513 0.221852
vt 0.828513 0.174376
vt 0.872886 0.187177
vt 0.872886 0.234653
vt 0.968272 0.743558
vt 0.940862 0.744213
vt 0.940862 0.691264
vt 0.968272 0.690609
vt 0.492313 0.825417
vt 0.551210 0.841577
vt 0.551210 0.906052
vt 0.492313 0.889891
vt 0.357465 0.878549
vt 0.406429 0.857445
vt 0.406429 0.921919
vt 0.357465 0.943024
vt 0.973299 0.639013
vt 0.940862 0.655467
vt 0.940862 0.587142
vt 0.973299 0.570688
vt 0.017571 0.272463
vt 0.200366 0.322620
vt 0.200366 0.522728
vt 0.017571 0.472571
vt 0.272140 0.622195
vt 0.424107 0.556694
vt 0.424107 0.756801
vt 0.272140 0.822302
vt 0.796586 0.484480
vt 0.695913 0.535546
vt 0.695913 0.323489
vt 0.796586 0.272423
vt 0.911907 0.139233
vt 0.828514 0.115303
vt 0.828514 0.017571
vt 0.911907 0.041501
vt 0.695913 0.893848
vt 0.695913 0.788520
vt 0.801109 0.788496
vt 0.801109 0.893824
vt 0.800945 0.676021
vt 0.800945 0.570692
vt 0.905720 0.570688
vt 0.905720 0.676017
vt 0.586352 0.842714
vt 0.644288 0.825417
vt 0.644288 0.889444
vt 0.586352 0.906741
vt 0.272140 0.857445
vt 0.322322 0.878738
vt 0.322322 0.942765
vt 0.272140 0.921472
vt 0.154176 0.885723
vt 0.154176 0.814935
vt 0.224925 0.814935
vt 0.224925 0.885723
vt 0.017571 0.560122
vt 0.191201 0.557870
vt 0.191201 0.777541
vt 0.017571 0.779793
vt 0.272140 0.471864
vt 0.272140 0.272423
vt 0.457171 0.322111
vt 0.457171 0.521551
vt 0.606038 0.790274
vt 0.492313 0.787920
vt 0.492313 0.568235
vt 0.606038 0.570589
vt 0.660770 0.272423
vt 0.660770 0.461866
vt 0.492313 0.533092
vt 0.492313 0.343649
vt 0.017571 0.237271
vt 0.017571 0.017571
vt 0.236997 0.017621
vt 0.236997 0.237321
vt 0.272140 0.237273
vt 0.272140 0.017571
vt 0.490687 0.017578
vt 0.490687 0.237280
vt 0.831728 0.299209
vt 0.912987 0.272423
vt 0.912987 0.363515
vt 0.831728 0.390302
vt 0.836252 0.788496
vt 0.910384 0.819109
vt 0.910384 0.910201
vt 0.836252 0.879589
vt 0.017571 0.916452
vt 0.017571 0.814935
vt 0.119033 0.814935
vt 0.119033 0.916452
vt 0.525830 0.017571
vt 0.652730 0.052391
vt 0.652730 0.191310
vt 0.525830 0.156490
vt 0.687872 0.063043
vt 0.793371 0.017571
vt 0.793371 0.156490
vt 0.687872 0.201962
vt 0.765802 0.717903
vt 0.695913 0.753354
vt 0.695913 0.606139
vt 0.765802 0.570688
s 0
f 1/1/1 2/2/1 4/3/1 3/4/1
f 5/5/2 6/6/2 8/7/2 7/8/2
f 9/9/3 10/10/3 12/11/3 11/12/3
f 13/13/4 14/14/4 16/15/4 15/16/4
f 17/17/5 18/18/5 20/19/5 19/20/5
f 21/21/6 22/22/6 24/23/6 23/24/6
f 25/25/7 26/26/7 28/27/7 27/28/7
f 29/29/8 30/30/8 32/31/8 31/32/8
f 33/33/9 34/34/9 36/35/9 35/36/9
f 37/37/7 38/38/7 40/39/7 39/40/7
f 41/41/8 42/42/8 44/43/8 43/44/8
f 45/45/9 46/46/9 48/47/9 47/48/9
f 49/49/10 50/50/10 52/51/10 51/52/10
f 53/53/11 54/54/11 56/55/11 55/56/11
f 57/57/12 58/58/12 60/59/12 59/60/12
f 61/61/13 62/62/13 64/63/13 63/64/13
f 65/65/14 66/66/14 68/67/14 67/68/14
f 69/69/15 70/70/15 72/71/15 71/72/15
f 73/73/16 74/74/16 76/75/16 75/76/16
f 77/77/17 78/78/17 80/79/17 79/80/17
f 81/81/18 82/82/18 84/83/18 83/84/18
f 85/85/19 86/86/19 88/87/19 87/88/19
f 89/89/20 90/90/20 92/91/20 91/92/20
f 93/93/21 94/94/21 96/95/21 95/96/21
f 97/97/22 98/98/22 100/99/22 99/100/22
f 101/101/23 102/102/23 104/103/23 103/104/23
f 105/105/24 106/106/24 108/107/24 107/108/24
f 109/109/7 110/110/7 112/111/7 111/112/7
f 113/113/8 114/114/8 116/115/8 115/116/8
f 117/117/9 118/118/9 120/119/9 119/120/9
