# Blender 4.5.3 LTS
# www.blender.org
mtllib leav.mtl
o Plane.001
v -1.537709 6.950379 2.643687
v -0.246661 4.502011 -5.196103
v -5.851110 7.212405 -0.993180
v -4.560063 4.764037 -8.832969
v -2.073782 4.673249 9.123480
v 0.553178 5.775721 3.216138
v -5.729839 6.915724 3.406011
v -3.102877 8.018196 -2.501330
v -5.079377 4.858348 6.308439
v -2.727118 8.230431 3.309891
v -7.083466 4.168305 -2.361401
v -4.731205 7.540388 -5.359950
v 2.635541 4.846455 7.819553
v 3.264215 3.570089 4.149181
v 0.853588 5.484406 5.930337
v 1.482264 4.208041 2.259967
v 1.843795 3.867912 10.828732
v 3.424536 4.057398 8.162663
v 0.686806 5.333966 8.006647
v 2.267548 5.523451 5.340580
v 0.614340 4.313593 9.379902
v 2.217815 5.575532 8.098679
v -0.014572 4.238204 5.201807
v 1.588905 5.500144 3.920584
v 6.820371 5.243030 -1.198149
v 6.349282 3.782397 -5.433457
v 4.262486 5.973082 -2.711313
v 3.791397 4.512449 -6.946619
v 6.902731 4.123217 2.361708
v 7.796670 4.340058 -1.070718
v 4.736657 5.800922 -0.375233
v 5.630598 6.017763 -3.807660
v 5.091883 4.633239 1.157846
v 6.449410 6.077363 -0.758906
v 3.077065 4.546968 -3.237506
v 4.434594 5.991092 -5.154260
v 2.901089 5.602611 2.602713
v 3.866887 3.641801 -3.035877
v 0.163575 6.582661 -0.299586
v 1.129373 4.621851 -5.938173
v 1.684773 4.099330 7.225548
v 4.113178 4.390426 3.129816
v -0.092645 6.351547 2.890137
v 2.335764 6.642643 -1.205596
v -0.203971 4.784004 4.999792
v 2.259360 6.722653 3.031519
v -1.170132 4.668190 -1.418785
v 1.293200 6.606838 -3.387057
v 1.337988 6.997389 -0.840482
v 1.965894 2.289303 -7.664212
v -2.767941 7.315205 -4.705873
v -2.140034 2.607119 -11.529601
v 0.241935 6.752694 5.956518
v 3.062609 5.546690 0.159760
v -2.725876 8.194336 -0.383724
v 0.094800 6.988333 -6.180482
v -2.618452 6.900834 2.991968
v 0.512100 8.659781 -0.613736
v -4.732023 4.411881 -5.314451
v -1.601469 6.170828 -8.920156
v 4.272908 6.422440 2.643688
v 4.900814 3.726694 -5.196104
v 0.166980 7.769825 -0.993181
v 0.794886 5.074079 -8.832970
v 3.176855 4.355711 9.123480
v 5.997530 4.755914 3.216139
v 0.209045 7.452087 3.406011
v 3.029721 7.852290 -2.501330
v 0.316468 5.297010 6.308439
v 3.447021 7.962288 3.309891
v -1.797102 5.137786 -2.361401
v 1.333452 7.803064 -5.359951
v 1.062432 6.422440 6.731213
v 1.690337 3.726694 -1.108579
v -3.043497 7.769825 3.094345
v -2.415591 5.074079 -4.745445
v -0.033621 4.355711 13.211006
v 2.787053 4.755914 7.303664
v -3.001432 7.452087 7.493536
v -0.180756 7.852290 1.586195
v -2.894008 5.297010 10.395965
v 0.236544 7.962288 7.397416
v -5.007579 5.137786 1.726124
v -1.877025 7.803065 -1.272425
v -1.234958 7.213556 1.567558
v 0.056089 4.765188 -6.272234
v -5.548360 7.475582 -2.069311
v -4.257313 5.027214 -9.909101
v -1.771032 4.936426 8.047351
v 0.855928 6.038898 2.140009
v -5.427089 7.178901 2.329881
v -2.800127 8.281374 -3.577461
v -4.776627 5.121525 5.232309
v -2.424368 8.493608 2.233761
v -6.780716 4.431482 -3.437531
v -4.428455 7.803565 -6.436080
v 2.938292 5.109631 6.743424
v 3.566966 3.833265 3.073051
v 1.156339 5.747582 4.854208
v 1.785014 4.471218 1.183837
v 2.146546 4.131088 9.752602
v 3.727287 4.320574 7.086534
v 0.989557 5.597142 6.930518
v 2.570299 5.786628 4.264451
v 0.917091 4.576770 8.303774
v 2.520566 5.838709 7.022550
v 0.288179 4.501381 4.125678
v 1.891656 5.763321 2.844455
v 7.123121 5.506206 -2.274279
v 6.652034 4.045574 -6.509587
v 4.565237 6.236259 -3.787443
v 4.094149 4.775625 -8.022750
v 7.205482 4.386394 1.285578
v 8.099422 4.603234 -2.146848
v 5.039409 6.064099 -1.451363
v 5.933350 6.280940 -4.883790
v 5.394634 4.896416 0.081716
v 6.752162 6.340540 -1.835037
v 3.379816 4.810144 -4.313637
v 4.737346 6.254269 -6.230391
v 3.203840 5.865787 1.526583
v 4.169638 3.904978 -4.112008
v 0.466326 6.845838 -1.375716
v 1.432123 4.885027 -7.014304
v 1.987524 4.362506 6.149419
v 4.415929 4.653603 2.053686
v 0.210106 6.614724 1.814007
v 2.638514 6.905820 -2.281727
v 0.098780 5.047181 3.923662
v 2.562111 6.985830 1.955390
v -0.867381 4.931367 -2.494915
v 1.595951 6.870015 -4.463187
v 1.640739 7.260566 -1.916612
v 2.268645 2.552479 -8.740343
v -2.465190 7.578382 -5.782004
v -1.837284 2.870295 -12.605733
v 0.544687 7.015871 4.880388
v 3.365360 5.809867 -0.916370
v -2.423125 8.457514 -1.459854
v 0.397551 7.251510 -7.256613
v -2.315702 7.164011 1.915838
v 0.814850 8.922957 -1.689866
v -4.429273 4.675058 -6.390582
v -1.298718 6.434005 -9.996287
v 4.575660 6.685616 1.567558
v 5.203565 3.989871 -6.272234
v 0.469731 8.033002 -2.069311
v 1.097637 5.337255 -9.909101
v 3.479607 4.618888 8.047351
v 6.300281 5.019090 2.140009
v 0.511796 7.715264 2.329881
v 3.332472 8.115467 -3.577461
v 0.619219 5.560187 5.232310
v 3.749772 8.225466 2.233761
v -1.494352 5.400963 -3.437531
v 1.636203 8.066241 -6.436081
v 1.365183 6.685616 5.655084
v 1.993088 3.989871 -2.184709
v -2.740746 8.033002 2.018215
v -2.112840 5.337256 -5.821576
v 0.269130 4.618888 12.134877
v 3.089804 5.019091 6.227535
v -2.698681 7.715264 6.417407
v 0.121995 8.115467 0.510065
v -2.591258 5.560187 9.319836
v 0.539295 8.225466 6.321287
v -4.704829 5.400963 0.649994
v -1.574274 8.066242 -2.348556
vn 0.2652 0.9319 -0.2474
vn 0.1800 0.9494 0.2573
vn -0.7585 0.6397 0.1244
vn 0.5130 0.8342 -0.2022
vn 0.3902 0.8727 0.2934
vn -0.5803 0.8112 0.0727
vn 0.4370 0.8342 -0.3363
vn 0.4562 0.8727 0.1739
vn -0.5375 0.8112 0.2305
vn 0.4929 0.7367 -0.4630
vn 0.4149 0.9098 0.0126
vn -0.5714 0.8147 -0.0987
vn 0.4929 0.8342 -0.2474
vn 0.4149 0.8727 0.2573
vn -0.5714 0.8112 0.1244
vt 0.490365 0.460235
vt 0.490365 0.596477
vt 0.410401 0.637692
vt 0.410401 0.501450
vt 0.102489 0.629713
vt 0.020675 0.571412
vt 0.020675 0.453560
vt 0.102489 0.511861
vt 0.775510 0.020675
vt 0.850175 0.056122
vt 0.850175 0.203842
vt 0.775510 0.168395
vt 0.447144 0.883223
vt 0.447144 0.947476
vt 0.408204 0.968394
vt 0.408204 0.904141
vt 0.061912 0.970875
vt 0.020675 0.945338
vt 0.020675 0.891455
vt 0.061912 0.916991
vt 0.180066 0.979325
vt 0.143838 0.962700
vt 0.143838 0.892759
vt 0.180066 0.909384
vt 0.778637 0.847793
vt 0.778637 0.919241
vt 0.734057 0.942199
vt 0.734057 0.870751
vt 0.939352 0.115588
vt 0.891524 0.083872
vt 0.891524 0.020675
vt 0.939352 0.052391
vt 0.838758 0.858773
vt 0.880232 0.877661
vt 0.880232 0.956794
vt 0.838758 0.937906
vt 0.692708 0.684435
vt 0.692708 0.783144
vt 0.632886 0.815280
vt 0.632886 0.716571
vt 0.844502 0.378062
vt 0.781150 0.338832
vt 0.781150 0.256054
vt 0.844502 0.295284
vt 0.940981 0.593223
vt 0.885325 0.567683
vt 0.885325 0.460235
vt 0.940981 0.485775
vt 0.739801 0.256054
vt 0.739801 0.380579
vt 0.657640 0.418886
vt 0.657640 0.294360
vt 0.109778 0.200338
vt 0.020675 0.138907
vt 0.020675 0.020675
vt 0.109778 0.082106
vt 0.143838 0.672366
vt 0.219980 0.705724
vt 0.219980 0.851409
vt 0.143838 0.818052
vt 0.492671 0.240455
vt 0.492671 0.375181
vt 0.410401 0.418886
vt 0.410401 0.284160
vt 0.236966 0.412210
vt 0.149495 0.356594
vt 0.149495 0.241688
vt 0.236966 0.297304
vt 0.734161 0.203526
vt 0.657640 0.168315
vt 0.657640 0.020675
vt 0.734161 0.055885
vt 0.616291 0.240455
vt 0.616291 0.375181
vt 0.534020 0.418886
vt 0.534020 0.284160
vt 0.108145 0.412210
vt 0.020675 0.356594
vt 0.020675 0.241688
vt 0.108145 0.297304
vt 0.843976 0.643086
vt 0.767455 0.607876
vt 0.767455 0.460235
vt 0.843976 0.495445
vt 0.223802 0.453560
vt 0.223802 0.589801
vt 0.143838 0.631017
vt 0.143838 0.494775
vt 0.363395 0.620571
vt 0.281581 0.562270
vt 0.281581 0.444418
vt 0.363395 0.502719
vt 0.281581 0.661921
vt 0.356245 0.697368
vt 0.356245 0.845088
vt 0.281581 0.809641
vt 0.960522 0.858773
vt 0.960522 0.923026
vt 0.921582 0.943944
vt 0.921582 0.879691
vt 0.322818 0.965857
vt 0.281581 0.940321
vt 0.281581 0.886437
vt 0.322818 0.911974
vt 0.971991 0.771002
vt 0.935763 0.754377
vt 0.935763 0.684435
vt 0.971991 0.701060
vt 0.576294 0.856629
vt 0.576294 0.928077
vt 0.531715 0.951034
vt 0.531715 0.879586
vt 0.933679 0.350967
vt 0.885851 0.319251
vt 0.885851 0.256054
vt 0.933679 0.287770
vt 0.617644 0.856629
vt 0.659118 0.875517
vt 0.659118 0.954650
vt 0.617643 0.935762
vt 0.591536 0.684435
vt 0.591536 0.783144
vt 0.531715 0.815280
vt 0.531715 0.716571
vt 0.797408 0.806444
vt 0.734057 0.767214
vt 0.734057 0.684435
vt 0.797408 0.723665
vt 0.894413 0.817423
vt 0.838758 0.791883
vt 0.838758 0.684435
vt 0.894413 0.709976
vt 0.490365 0.679042
vt 0.490365 0.803567
vt 0.408204 0.841873
vt 0.408204 0.717348
vt 0.240231 0.200338
vt 0.151128 0.138907
vt 0.151128 0.020675
vt 0.240231 0.082106
vt 0.020675 0.671062
vt 0.096817 0.704420
vt 0.096817 0.850105
vt 0.020675 0.816748
vt 0.492671 0.020675
vt 0.492671 0.155400
vt 0.410401 0.199105
vt 0.410401 0.064380
vt 0.369051 0.403069
vt 0.281581 0.347453
vt 0.281581 0.232547
vt 0.369051 0.288163
vt 0.608235 0.643086
vt 0.531715 0.607876
vt 0.531715 0.460235
vt 0.608235 0.495445
vt 0.616291 0.020675
vt 0.616291 0.155400
vt 0.534020 0.199105
vt 0.534020 0.064380
vt 0.369051 0.191197
vt 0.281581 0.135581
vt 0.281581 0.020675
vt 0.369051 0.076291
vt 0.726106 0.643086
vt 0.649585 0.607876
vt 0.649585 0.460235
vt 0.726106 0.495445
s 0
usemtl Material.005
f 1/1/1 2/2/1 4/3/1 3/4/1
f 5/5/2 6/6/2 8/7/2 7/8/2
f 9/9/3 10/10/3 12/11/3 11/12/3
f 13/13/4 14/14/4 16/15/4 15/16/4
f 17/17/5 18/18/5 20/19/5 19/20/5
f 21/21/6 22/22/6 24/23/6 23/24/6
f 25/25/7 26/26/7 28/27/7 27/28/7
f 29/29/8 30/30/8 32/31/8 31/32/8
f 33/33/9 34/34/9 36/35/9 35/36/9
f 37/37/4 38/38/4 40/39/4 39/40/4
f 41/41/5 42/42/5 44/43/5 43/44/5
f 45/45/6 46/46/6 48/47/6 47/48/6
f 49/49/10 50/50/10 52/51/10 51/52/10
f 53/53/11 54/54/11 56/55/11 55/56/11
f 57/57/12 58/58/12 60/59/12 59/60/12
f 61/61/13 62/62/13 64/63/13 63/64/13
f 65/65/14 66/66/14 68/67/14 67/68/14
f 69/69/15 70/70/15 72/71/15 71/72/15
f 73/73/13 74/74/13 76/75/13 75/76/13
f 77/77/14 78/78/14 80/79/14 79/80/14
f 81/81/15 82/82/15 84/83/15 83/84/15
f 85/85/1 86/86/1 88/87/1 87/88/1
f 89/89/2 90/90/2 92/91/2 91/92/2
f 93/93/3 94/94/3 96/95/3 95/96/3
f 97/97/4 98/98/4 100/99/4 99/100/4
f 101/101/5 102/102/5 104/103/5 103/104/5
f 105/105/6 106/106/6 108/107/6 107/108/6
f 109/109/7 110/110/7 112/111/7 111/112/7
f 113/113/8 114/114/8 116/115/8 115/116/8
f 117/117/9 118/118/9 120/119/9 119/120/9
f 121/121/4 122/122/4 124/123/4 123/124/4
f 125/125/5 126/126/5 128/127/5 127/128/5
f 129/129/6 130/130/6 132/131/6 131/132/6
f 133/133/10 134/134/10 136/135/10 135/136/10
f 137/137/11 138/138/11 140/139/11 139/140/11
f 141/141/12 142/142/12 144/143/12 143/144/12
f 145/145/13 146/146/13 148/147/13 147/148/13
f 149/149/14 150/150/14 152/151/14 151/152/14
f 153/153/15 154/154/15 156/155/15 155/156/15
f 157/157/13 158/158/13 160/159/13 159/160/13
f 161/161/14 162/162/14 164/163/14 163/164/14
f 165/165/15 166/166/15 168/167/15 167/168/15
